<svg xmlns="http://www.w3.org/2000/svg" width="512" height="512" viewBox="0 0 512 512" version="1.1">
	<path d="M 247 65.010 C 199.225 66.163, 170.102 67.657, 159.500 69.500 C 121.518 76.100, 105.248 87.290, 97.168 112.370 C 95.937 116.192, 95.522 121.198, 95.539 132 C 95.565 147.591, 95.938 149.460, 104.313 175.978 L 107.622 186.455 101.849 191.800 C 87.414 205.165, 86.730 222.150, 99.990 237.988 C 104.931 243.890, 105.191 247.874, 101.491 261.033 C 94.626 285.447, 94.051 299.531, 98.959 323 C 103.510 344.758, 102.997 354.344, 96.508 368.802 C 93.023 376.568, 93.359 380.615, 98.419 391.821 L 102.128 400.036 99.564 405.456 C 96.620 411.680, 96.418 413.973, 98.464 417.931 C 101.360 423.531, 108.898 428.384, 121.198 432.567 C 130.416 435.703, 138.951 436.787, 163.500 437.940 C 192.391 439.298, 205.985 441.966, 242.500 453.447 C 256.222 457.762, 258.181 458.130, 265.500 457.776 C 272.758 457.425, 275.397 456.625, 293.963 449.144 C 317.260 439.756, 334.421 434.246, 351.603 430.637 C 367.934 427.207, 393.835 423.310, 409.798 421.881 C 426.726 420.366, 426.853 420.211, 420.604 408.734 C 414.816 398.104, 410.644 385.504, 407.942 370.500 C 406.044 359.955, 405.847 356.136, 406.320 339 C 406.924 317.115, 408.171 309.534, 415.450 283.500 C 421.248 262.762, 423 252.311, 423 238.457 C 423 220.414, 420.025 208.282, 412.929 197.391 C 410.736 194.025, 408.606 189.298, 408.195 186.886 L 407.448 182.500 400.974 181.844 C 395.111 181.250, 385.654 178.372, 382.119 176.105 C 380.142 174.838, 386.894 173.840, 402.395 173.108 C 417.661 172.388, 418.643 171.764, 415.125 165.015 C 412.429 159.842, 410 150.831, 410 146 C 410 137.109, 415.087 124.219, 421.171 117.695 C 423.307 115.404, 424.930 112.877, 424.777 112.081 C 424.624 111.285, 421.124 108.349, 416.999 105.557 C 412.875 102.766, 405.826 97.491, 401.336 93.835 C 387 82.164, 372.912 75.146, 354.392 70.448 C 331.988 64.764, 307.849 63.542, 247 65.010 M 172.322 79.024 C 160.617 81.146, 147.843 87.439, 141.085 94.412 C 138.244 97.344, 137.944 98.041, 139.302 98.562 C 140.341 98.961, 142.509 97.897, 145.273 95.632 C 151.148 90.818, 161.139 86.288, 170.094 84.377 C 175.929 83.132, 181.211 82.913, 195 83.344 C 214.185 83.944, 223.915 85.585, 243.518 91.527 C 257.620 95.801, 261.202 95.898, 267.054 92.162 C 271.875 89.085, 280 80.755, 280 78.891 C 280 78.026, 274.039 77.958, 256.250 78.618 C 229.101 79.626, 218.372 79.646, 194.500 78.735 C 185.014 78.372, 175.212 78.500, 172.322 79.024 M 306.942 83.599 C 305.318 87.794, 304.574 104.939, 305.872 108.250 C 307.207 111.655, 308.586 111.691, 319.242 108.603 C 336.822 103.508, 362.529 102.710, 387.268 106.489 C 403.378 108.950, 404.167 108.391, 393 102.423 C 367.619 88.859, 346.954 82.951, 319.282 81.348 L 308.065 80.699 306.942 83.599 M 171.725 97.495 C 152.719 102.332, 143.064 112.438, 137.901 132.901 C 136.091 140.076, 135.852 143.286, 136.264 154.901 C 136.767 169.095, 139.253 184.598, 141.521 187.693 C 142.687 189.286, 144.485 189.499, 156.672 189.489 C 168.814 189.479, 171.088 189.207, 175.324 187.262 C 177.977 186.044, 179.890 184.631, 179.576 184.123 C 179.261 183.614, 171.320 182.869, 161.928 182.468 C 145.052 181.747, 144.840 181.709, 143.925 179.304 C 142.500 175.555, 142.723 175.152, 146.841 174.043 C 160.143 170.461, 179.973 169.127, 193.336 170.915 C 212.186 173.437, 234.831 180.542, 254.451 190.089 C 259.924 192.752, 264.502 194.832, 264.624 194.710 C 264.745 194.588, 264.159 191.566, 263.320 187.994 C 261.249 179.170, 262.033 167.483, 265.268 158.962 C 266.633 155.367, 270.322 148.288, 273.464 143.231 C 281.601 130.140, 285.208 121.071, 285.787 112.250 C 286.049 108.263, 286.026 105, 285.735 105 C 285.445 105, 281.772 106.632, 277.573 108.626 C 266.374 113.944, 261.649 113.745, 242.500 107.149 C 220.384 99.531, 208.243 96.988, 191.500 96.464 C 181.239 96.143, 175.958 96.418, 171.725 97.495 M 344.906 119.002 C 336.717 119.946, 322.672 123.274, 317.164 125.576 C 311.736 127.844, 309.506 127.356, 305.378 123 C 303.294 120.800, 301.321 119, 300.994 119 C 300.667 119, 299.820 121.806, 299.112 125.237 C 297.301 134.005, 293.801 142.132, 287.587 152 C 280.135 163.834, 278.373 167.617, 276.954 174.828 C 275.615 181.635, 276.217 194.617, 277.953 196.353 C 278.677 197.077, 279.990 196.463, 282.248 194.343 C 289.029 187.977, 304.511 179.352, 320.702 172.920 C 337.012 166.441, 366.267 160.624, 389.123 159.317 C 396.032 158.921, 399.978 158.294, 399.940 157.597 C 399.908 156.994, 399.513 154.257, 399.063 151.516 C 397.924 144.566, 399.485 133.815, 402.509 127.795 C 403.910 125.005, 404.931 122.628, 404.778 122.512 C 404.625 122.397, 398.650 121.527, 391.500 120.579 C 375.827 118.503, 355.271 117.807, 344.906 119.002 M 398.907 195.426 C 398.673 195.661, 389.357 196.787, 378.206 197.930 C 350.087 200.811, 337.346 203.714, 318.225 211.599 C 309.694 215.117, 305.053 217.540, 289.349 226.676 C 284.316 229.604, 279.671 232, 279.027 232 C 278.337 232, 278.649 233.009, 279.784 234.453 C 281.867 237.101, 283.544 242.703, 284.513 250.250 C 284.848 252.863, 285.351 255, 285.631 255 C 285.911 255, 289.596 252.897, 293.820 250.326 C 309.393 240.848, 328.490 233.179, 346 229.372 C 359.038 226.537, 385.392 226.734, 397.651 229.756 C 407 232.062, 410 231.946, 410 229.281 C 410 228.454, 408.373 223.439, 406.385 218.138 C 403.667 210.891, 402.737 206.826, 402.635 201.754 C 402.526 196.324, 402.191 195.007, 400.917 195.004 C 400.046 195.002, 399.142 195.192, 398.907 195.426 M 145 206.199 C 145 206.433, 145.970 208.621, 147.156 211.062 C 150.372 217.680, 150.779 228.010, 148.100 235 C 146.130 240.138, 146.103 240.582, 147.687 241.750 C 150.188 243.594, 153.896 243.303, 166.322 240.288 C 176.205 237.891, 179.470 237.574, 194.500 237.557 C 218.958 237.528, 233.829 241.122, 259.143 253.182 C 274.872 260.675, 275.735 260.274, 272.876 246.799 C 270.207 234.224, 263.761 226.988, 248.660 219.620 C 228.787 209.924, 211.487 206.852, 178.186 207.106 C 165.159 207.206, 152.363 206.947, 149.750 206.530 C 147.137 206.114, 145 205.964, 145 206.199 M 356.882 243.069 C 335.943 246.147, 316.810 253.798, 291.500 269.217 L 282.500 274.699 279.327 283.119 C 271.584 303.667, 271.013 322.513, 277.288 350.500 C 281.987 371.464, 283.114 380.352, 283.093 396.304 C 283.076 409.563, 281.504 420.956, 278.403 430.293 C 277.519 432.953, 277.016 435.349, 277.285 435.618 C 277.553 435.887, 281.003 434.017, 284.951 431.463 C 310.237 415.106, 339.277 406.865, 372.500 406.619 C 381.300 406.553, 392.239 406.887, 396.809 407.359 L 405.118 408.219 403.428 404.359 C 400.038 396.621, 396.077 384.301, 394.310 376 C 392.873 369.251, 392.503 362.969, 392.513 345.500 C 392.527 319.863, 392.760 318.387, 403.011 279 C 406.805 264.425, 410.181 250.925, 410.515 249 L 411.122 245.500 406.311 245.400 C 403.665 245.345, 397.504 244.558, 392.619 243.650 C 383.261 241.911, 366.604 241.641, 356.882 243.069 M 182.500 253.015 C 178.100 253.484, 170.675 254.795, 166 255.927 C 155.729 258.415, 150.363 258.529, 144.979 256.375 C 142.745 255.481, 140.792 254.918, 140.639 255.125 C 140.487 255.331, 139.172 259.550, 137.718 264.500 C 130.459 289.210, 131.187 306.467, 141.002 342.262 C 150.449 376.717, 150.948 388.650, 143.869 410.752 C 142.235 415.853, 141.172 420.470, 141.508 421.013 C 141.843 421.556, 146.029 422.004, 150.809 422.009 C 185.502 422.044, 215.656 427.728, 246.348 440.017 C 253.366 442.827, 259.830 444.985, 260.714 444.813 C 261.740 444.613, 263.346 441.445, 265.165 436.031 C 273.781 410.382, 273.703 388.573, 264.856 349.593 C 259.027 323.912, 259.833 304.022, 267.531 283.503 C 269.388 278.555, 270.590 274.202, 270.203 273.828 C 268.783 272.458, 244.921 261.959, 237.820 259.581 C 220.960 253.934, 198.680 251.290, 182.500 253.015 M 291.011 276.487 C 290.207 277.456, 290.053 278.937, 290.569 280.737 C 291.312 283.329, 291.385 283.361, 291.750 281.250 C 292.050 279.517, 292.813 279, 295.070 279 C 297.511 279, 298 279.408, 298 281.443 C 298 282.787, 297.103 284.515, 296.006 285.283 C 293.953 286.721, 294.285 288, 296.712 288 C 298.723 288, 303 283.398, 303 281.234 C 303 280.213, 302.082 278.392, 300.961 277.189 C 298.570 274.622, 292.891 274.221, 291.011 276.487 M 287 313.976 C 285.779 314.785, 285.918 314.972, 287.750 314.985 C 289.652 314.998, 290 315.542, 290 318.500 C 290 320.924, 290.455 322, 291.481 322 C 293.082 322, 294.391 318.284, 293.830 315.329 C 293.435 313.248, 289.327 312.434, 287 313.976 M 285 319.500 C 285 320.875, 285.388 322, 285.861 322 C 286.335 322, 286.508 320.875, 286.245 319.500 C 285.982 318.125, 285.594 317, 285.383 317 C 285.173 317, 285 318.125, 285 319.500 M 291.308 337.194 C 290.103 337.777, 288.876 338.882, 288.581 339.650 C 288.152 340.768, 288.452 340.829, 290.086 339.954 C 294.673 337.499, 297.168 345.368, 292.777 348.443 C 290.897 349.760, 290.827 350, 292.323 350 C 293.295 350, 295.195 348.895, 296.545 347.545 C 299.717 344.374, 299.826 339.692, 296.777 337.557 C 294.234 335.775, 294.244 335.776, 291.308 337.194 M 288 345 C 288 345.550, 288.450 346, 289 346 C 289.550 346, 290 345.550, 290 345 C 290 344.450, 289.550 344, 289 344 C 288.450 344, 288 344.450, 288 345" stroke="none" fill="black" fill-rule="evenodd"/>
</svg>